<svg xmlns="http://www.w3.org/2000/svg" width="24" height="24" viewBox="0 0 24 24" id="padlock">
  <path d="M16 24H8c-2.2 0-4-1.8-4-4v-7c0-2.2 1.8-4 4-4h8c2.2 0 4 1.8 4 4v7c0 2.2-1.8 4-4 4zM8 11c-1.1 0-2 .9-2 2v7c0 1.1.9 2 2 2h8c1.1 0 2-.9 2-2v-7c0-1.1-.9-2-2-2H8z"></path>
  <path d="M17 11H7c-.6 0-1-.4-1-1V6c0-3.3 2.7-6 6-6 3.4 0 6 2.7 6 6v4c0 .6-.4 1-1 1zM8 9h8V6c0-2.2-1.8-4-4-4S8 3.8 8 6v3z"></path>
  <circle cx="12" cy="15" r="2"></circle>
  <path d="M12 20c-.6 0-1-.4-1-1v-3c0-.6.4-1 1-1s1 .4 1 1v3c0 .6-.4 1-1 1z"></path>
</svg>
